<svg width="16" height="16" viewBox="0 0 16 16" fill="none" xmlns="http://www.w3.org/2000/svg">
<path d="M10.0933 7.87534C9.8262 7.70381 9.53624 7.57073 9.23201 7.48001C9.04534 7.42334 8.83868 7.36801 8.62534 7.31534C8.43868 7.26334 8.21734 7.21001 7.94401 7.15001C7.61783 7.08163 7.29768 6.9871 6.98668 6.86734C6.82639 6.80507 6.68492 6.70242 6.57601 6.56934C6.4963 6.46045 6.45844 6.32651 6.46934 6.19201C6.4691 6.04779 6.51722 5.90765 6.60601 5.79401C6.73029 5.64845 6.8915 5.53906 7.07268 5.47734C7.37742 5.37263 7.69858 5.32384 8.02068 5.33334C8.26991 5.32921 8.51838 5.36201 8.75801 5.43068C8.91693 5.47539 9.06661 5.54808 9.20001 5.64534C9.28628 5.70691 9.35984 5.78455 9.41668 5.87401C9.45784 5.9517 9.51396 6.02048 9.58181 6.07639C9.64966 6.1323 9.7279 6.17424 9.81203 6.19979C9.89615 6.22534 9.9845 6.23399 10.072 6.22526C10.1595 6.21653 10.2444 6.19058 10.3218 6.1489C10.3992 6.10723 10.4676 6.05065 10.5231 5.98244C10.5785 5.91422 10.6199 5.8357 10.6449 5.75141C10.6699 5.66712 10.678 5.57871 10.6687 5.49129C10.6594 5.40386 10.6329 5.31915 10.5907 5.24201C10.4501 4.99335 10.2602 4.77603 10.0327 4.60334C9.76979 4.40139 9.47159 4.25014 9.15334 4.15734C8.78595 4.0488 8.40441 3.99577 8.02134 4.00001C7.53441 3.98953 7.04969 4.06862 6.59134 4.23334C6.17683 4.38424 5.8127 4.64793 5.54001 4.99468C5.27883 5.33946 5.13743 5.76013 5.13734 6.19268C5.12653 6.6233 5.26293 7.04472 5.52401 7.38734C5.77606 7.70479 6.10647 7.9511 6.48268 8.10201C6.76694 8.21139 7.058 8.30225 7.35401 8.37401C7.35934 8.37601 7.36334 8.38068 7.36868 8.38201C7.49668 8.42068 7.70068 8.47201 7.99534 8.53534C8.11068 8.56068 8.21868 8.58801 8.32668 8.61534C8.33734 8.61801 8.35268 8.62134 8.36268 8.62468L8.37468 8.62601C8.54001 8.66868 8.69934 8.71201 8.84534 8.75668C9.02471 8.80917 9.19591 8.88635 9.35401 8.98601C9.45259 9.04793 9.53544 9.13192 9.59601 9.23134C9.65463 9.35265 9.68168 9.48679 9.67468 9.62134C9.6839 9.79549 9.63359 9.96759 9.53201 10.1093C9.39482 10.2879 9.20924 10.4232 8.99734 10.4993C8.6815 10.6212 8.34438 10.6784 8.00601 10.6673C7.6147 10.6824 7.22546 10.6038 6.87068 10.438C6.70681 10.3507 6.56604 10.2257 6.46001 10.0733C6.38558 9.97582 6.33904 9.85992 6.32534 9.73801C6.32534 9.5612 6.2551 9.39163 6.13008 9.2666C6.00506 9.14158 5.83549 9.07134 5.65868 9.07134C5.48186 9.07134 5.31229 9.14158 5.18727 9.2666C5.06225 9.39163 4.99201 9.5612 4.99201 9.73801C5.003 10.1314 5.13216 10.5124 5.36268 10.8313C5.59305 11.1631 5.89992 11.4345 6.25734 11.6227C6.80116 11.888 7.40115 12.0177 8.00601 12.0007C8.51999 12.0131 9.03117 11.9213 9.50868 11.7307C9.95255 11.5604 10.3379 11.2657 10.6187 10.882C10.8855 10.5082 11.0223 10.0571 11.008 9.59801C11.0142 9.24212 10.9281 8.8907 10.758 8.57801C10.5938 8.29572 10.3662 8.05542 10.0933 7.87601V7.87534ZM14.9073 9.12734C15.0871 8.03173 15.0034 6.90907 14.6632 5.85221C14.3231 4.79534 13.7362 3.83465 12.9511 3.04958C12.166 2.26451 11.2053 1.67762 10.1485 1.33745C9.09162 0.997277 7.96896 0.913602 6.87334 1.09334C6.06442 0.705488 5.15504 0.578296 4.27075 0.729323C3.38645 0.880349 2.57084 1.30215 1.93649 1.93649C1.30215 2.57084 0.880349 3.38645 0.729323 4.27075C0.578296 5.15504 0.705488 6.06442 1.09334 6.87334C0.913751 7.96884 0.997513 9.09135 1.3377 10.1481C1.67789 11.2048 2.26473 12.1653 3.04971 12.9503C3.83468 13.7353 4.79524 14.3221 5.85195 14.6623C6.90866 15.0025 8.03118 15.0863 9.12668 14.9067C9.9356 15.2945 10.845 15.4217 11.7293 15.2707C12.6136 15.1197 13.4292 14.6979 14.0635 14.0635C14.6979 13.4292 15.1197 12.6136 15.2707 11.7293C15.4217 10.845 15.2945 9.9356 14.9067 9.12668L14.9073 9.12734ZM11 14C10.4942 13.9998 9.99655 13.8718 9.55334 13.628C9.41584 13.5523 9.25609 13.5272 9.10201 13.5573C8.28039 13.7212 7.43264 13.7007 6.61991 13.4972C5.80718 13.2938 5.04974 12.9125 4.40222 12.3809C3.7547 11.8492 3.23325 11.1805 2.87549 10.4229C2.51772 9.66535 2.33255 8.83781 2.33334 8.00001C2.33403 7.62978 2.37064 7.2605 2.44268 6.89734C2.47284 6.74327 2.44782 6.58349 2.37201 6.44601C2.05898 5.87667 1.93924 5.2211 2.0308 4.57787C2.12235 3.93464 2.42026 3.33851 2.87971 2.87913C3.33917 2.41975 3.93534 2.12194 4.57859 2.03049C5.22184 1.93904 5.87739 2.05889 6.44668 2.37201C6.58429 2.44814 6.74439 2.47317 6.89868 2.44268C7.72025 2.27892 8.56793 2.29953 9.38057 2.50303C10.1932 2.70653 10.9506 3.08784 11.598 3.61946C12.2454 4.15109 12.7668 4.81977 13.1246 5.57729C13.4823 6.33481 13.6674 7.16227 13.6667 8.00001C13.666 8.37024 13.6294 8.73952 13.5573 9.10268C13.5272 9.25675 13.5522 9.41653 13.628 9.55401C13.8795 10.0107 14.0076 10.5251 13.9996 11.0465C13.9916 11.5678 13.8479 12.078 13.5826 12.5269C13.3173 12.9757 12.9396 13.3476 12.4867 13.606C12.0338 13.8643 11.5214 14.0001 11 14Z" fill="#151515"/>
</svg>
