<svg width="14" height="12" viewBox="0 0 14 12" fill="none" xmlns="http://www.w3.org/2000/svg">
<path d="M13.9459 1.33333C13.4326 1.56667 12.8793 1.72 12.3059 1.79333C12.8926 1.44 13.3459 0.88 13.5593 0.206667C13.0059 0.54 12.3926 0.773333 11.7459 0.906667C11.2193 0.333333 10.4793 0 9.63927 0C8.0726 0 6.7926 1.28 6.7926 2.86C6.7926 3.08667 6.81927 3.30667 6.86593 3.51333C4.4926 3.39333 2.37927 2.25333 0.972601 0.526667C0.725934 0.946667 0.585934 1.44 0.585934 1.96C0.585934 2.95333 1.08593 3.83333 1.85927 4.33333C1.38593 4.33333 0.945934 4.2 0.559268 4V4.02C0.559268 5.40667 1.54593 6.56667 2.8526 6.82667C2.43309 6.94147 1.99266 6.95745 1.56593 6.87333C1.74701 7.44165 2.10163 7.93894 2.57995 8.29529C3.05826 8.65163 3.63623 8.84913 4.2326 8.86C3.22169 9.66029 1.9686 10.0929 0.679268 10.0867C0.452601 10.0867 0.225934 10.0733 -0.000732422 10.0467C1.26593 10.86 2.7726 11.3333 4.38593 11.3333C9.63927 11.3333 12.5259 6.97333 12.5259 3.19333C12.5259 3.06667 12.5259 2.94667 12.5193 2.82C13.0793 2.42 13.5593 1.91333 13.9459 1.33333Z" fill="#151515"/>
</svg>
