<svg width="14" height="10" viewBox="0 0 14 10" fill="none" xmlns="http://www.w3.org/2000/svg">
<path d="M5.66658 7.00016L9.12658 5.00016L5.66658 3.00016V7.00016ZM13.3733 1.78016C13.4599 2.0935 13.5199 2.5135 13.5599 3.04683C13.6066 3.58016 13.6266 4.04016 13.6266 4.44016L13.6666 5.00016C13.6666 6.46016 13.5599 7.5335 13.3733 8.22016C13.2066 8.82016 12.8199 9.20683 12.2199 9.3735C11.9066 9.46016 11.3333 9.52016 10.4533 9.56016C9.58659 9.60683 8.79325 9.62683 8.05992 9.62683L6.99992 9.66683C4.20658 9.66683 2.46659 9.56016 1.77992 9.3735C1.17992 9.20683 0.793252 8.82016 0.626585 8.22016C0.539919 7.90683 0.479919 7.48683 0.439919 6.9535C0.393252 6.42016 0.373252 5.96016 0.373252 5.56016L0.333252 5.00016C0.333252 3.54016 0.439919 2.46683 0.626585 1.78016C0.793252 1.18016 1.17992 0.793496 1.77992 0.626829C2.09325 0.540163 2.66659 0.480163 3.54659 0.440163C4.41325 0.393496 5.20658 0.373496 5.93992 0.373496L6.99992 0.333496C9.79325 0.333496 11.5333 0.440163 12.2199 0.626829C12.8199 0.793496 13.2066 1.18016 13.3733 1.78016Z" fill="#151515"/>
</svg>
